<?xml version="1.0" standalone="no"?>
<!DOCTYPE svg PUBLIC "-//W3C//DTD SVG 1.1//EN" "http://www.w3.org/Graphics/SVG/1.1/DTD/svg11.dtd" >
<svg xmlns="http://www.w3.org/2000/svg">
<metadata>Generated by IcoMoon</metadata>
<defs>
<font id="icomoon" horiz-adv-x="1024">
<font-face units-per-em="1024" ascent="960" descent="-64" />
<missing-glyph horiz-adv-x="1024" />
<glyph unicode="&#x20;" horiz-adv-x="512" d="" />
<glyph unicode="&#xe900;" glyph-name="align" d="M128 320h426.656c23.552 0 42.656 19.104 42.656 42.656s-19.104 42.656-42.656 42.656v0h-426.656c-23.552 0-42.656-19.104-42.656-42.656s19.104-42.656 42.656-42.656v0zM128 490.656h426.656c23.552 0 42.656 19.104 42.656 42.656s-19.104 42.656-42.656 42.656v0h-426.656c-23.552 0-42.656-19.104-42.656-42.656s19.104-42.656 42.656-42.656v0zM128 661.344h768c23.552 0 42.656 19.104 42.656 42.656s-19.104 42.656-42.656 42.656v0h-768c-23.552 0-42.656-19.104-42.656-42.656s19.104-42.656 42.656-42.656v0zM896 234.656h-768c-23.552 0-42.656-19.104-42.656-42.656s19.104-42.656 42.656-42.656v0h768c23.552 0 42.656 19.104 42.656 42.656s-19.104 42.656-42.656 42.656v0zM837.984 551.68c-7.68 7.424-18.144 12-29.664 12-23.552 0-42.656-19.104-42.656-42.656 0-14.208 6.944-26.784 17.6-34.528l0.128-0.096 46.080-38.4-46.080-38.4c-9.472-7.872-15.424-19.68-15.424-32.832 0-10.432 3.744-19.968 9.952-27.392l-0.064 0.064c7.872-9.408 19.648-15.36 32.768-15.36 0.032 0 0.064 0 0.064 0v0c10.464 0.096 20 3.968 27.36 10.304l-0.064-0.064 85.344 70.816c9.472 7.872 15.456 19.68 15.456 32.864s-5.984 24.96-15.36 32.8l-0.064 0.064z" />
<glyph unicode="&#xe901;" glyph-name="angle-down" d="M725.344 568.736c-7.712 7.68-18.336 12.416-30.080 12.416s-22.368-4.736-30.080-12.416v0l-153.184-151.040-151.040 151.040c-7.712 7.68-18.336 12.416-30.080 12.416s-22.368-4.736-30.080-12.416v0c-7.808-7.744-12.608-18.464-12.608-30.304s4.832-22.56 12.608-30.304l180.896-180.896c7.744-7.808 18.464-12.608 30.304-12.608s22.56 4.832 30.304 12.608v0l183.040 180.896c7.808 7.744 12.608 18.464 12.608 30.304s-4.832 22.56-12.608 30.304v0z" />
<glyph unicode="&#xe902;" glyph-name="angle-up" d="M725.344 387.84l-183.040 180.896c-7.744 7.808-18.464 12.608-30.304 12.608s-22.56-4.832-30.304-12.608l-180.896-180.896c-7.808-7.744-12.608-18.464-12.608-30.304s4.832-22.56 12.608-30.304v0c7.712-7.68 18.336-12.416 30.080-12.416s22.368 4.736 30.080 12.416l151.040 151.040 151.040-151.040c7.68-7.616 18.208-12.32 29.856-12.384v0c0.064 0 0.16 0 0.256 0 11.712 0 22.336 4.736 30.048 12.384v0c8.448 7.808 13.728 18.976 13.728 31.36 0 11.328-4.416 21.632-11.616 29.248l0.032-0.032z" />
<glyph unicode="&#xe903;" glyph-name="apps" d="M426.656 405.344h-298.656c-23.552 0-42.656-19.104-42.656-42.656v0-298.656c0-23.552 19.104-42.656 42.656-42.656v0h298.656c23.552 0 42.656 19.104 42.656 42.656v0 298.656c0 23.552-19.104 42.656-42.656 42.656v0zM384 106.656h-213.344v213.344h213.344zM896 874.656h-298.656c-23.552 0-42.656-19.104-42.656-42.656v0-298.656c0-23.552 19.104-42.656 42.656-42.656v0h298.656c23.552 0 42.656 19.104 42.656 42.656v0 298.656c0 23.552-19.104 42.656-42.656 42.656v0zM853.344 576h-213.344v213.344h213.344zM896 405.344h-298.656c-23.552 0-42.656-19.104-42.656-42.656v0-298.656c0-23.552 19.104-42.656 42.656-42.656v0h298.656c23.552 0 42.656 19.104 42.656 42.656v0 298.656c0 23.552-19.104 42.656-42.656 42.656v0zM853.344 106.656h-213.344v213.344h213.344zM426.656 874.656h-298.656c-23.552 0-42.656-19.104-42.656-42.656v0-298.656c0-23.552 19.104-42.656 42.656-42.656v0h298.656c23.552 0 42.656 19.104 42.656 42.656v0 298.656c0 23.552-19.104 42.656-42.656 42.656v0zM384 576h-213.344v213.344h213.344z" />
<glyph unicode="&#xe904;" glyph-name="arrow-from-right" d="M128 789.344c-23.552 0-42.656-19.104-42.656-42.656v0-597.344c0-23.552 19.104-42.656 42.656-42.656s42.656 19.104 42.656 42.656v0 597.344c0 23.552-19.104 42.656-42.656 42.656v0zM935.264 464.224c-2.144 5.472-5.184 10.144-8.96 14.080v0l-170.656 170.656c-7.744 7.744-18.464 12.544-30.304 12.544-23.648 0-42.848-19.168-42.848-42.848 0-11.84 4.8-22.528 12.544-30.304v0l98.144-97.696h-494.496c-23.552 0-42.656-19.104-42.656-42.656s19.104-42.656 42.656-42.656v0h494.496l-98.144-97.696c-7.808-7.744-12.608-18.464-12.608-30.304s4.832-22.56 12.608-30.304v0c7.744-7.808 18.464-12.608 30.304-12.608s22.56 4.832 30.304 12.608l170.656 170.656c3.776 3.936 6.816 8.608 8.864 13.792l0.096 0.288c2.016 4.8 3.2 10.368 3.2 16.224s-1.184 11.424-3.296 16.48l0.096-0.288z" />
<glyph unicode="&#xe905;" glyph-name="arrow-growth" d="M935.264 677.536c-4.416 10.464-12.576 18.624-22.752 22.944l-0.288 0.096c-4.768 2.080-10.336 3.328-16.192 3.424h-213.376c-23.552 0-42.656-19.104-42.656-42.656s19.104-42.656 42.656-42.656v0h110.496l-238.496-238.496-140.384 140.8c-7.744 7.808-18.464 12.608-30.304 12.608s-22.56-4.832-30.304-12.608l-256-256c-7.808-7.744-12.608-18.464-12.608-30.304s4.832-22.56 12.608-30.304v0c7.744-7.808 18.464-12.608 30.304-12.608s22.56 4.832 30.304 12.608v0l225.696 226.144 140.384-140.8c7.744-7.808 18.464-12.608 30.304-12.608s22.56 4.832 30.304 12.608v0l268.384 268.8v-110.496c0-23.552 19.104-42.656 42.656-42.656s42.656 19.104 42.656 42.656v0 213.344c-0.064 5.888-1.312 11.424-3.52 16.48l0.096-0.288z" />
<glyph unicode="&#xe906;" glyph-name="calendar-alt" d="M512 149.344c23.552 0 42.656 19.104 42.656 42.656s-19.104 42.656-42.656 42.656c-23.552 0-42.656-19.104-42.656-42.656v0c0-23.552 19.104-42.656 42.656-42.656v0zM725.344 149.344c23.552 0 42.656 19.104 42.656 42.656s-19.104 42.656-42.656 42.656c-23.552 0-42.656-19.104-42.656-42.656v0c0-23.552 19.104-42.656 42.656-42.656v0zM725.344 320c23.552 0 42.656 19.104 42.656 42.656s-19.104 42.656-42.656 42.656c-23.552 0-42.656-19.104-42.656-42.656v0c0-23.552 19.104-42.656 42.656-42.656v0zM512 320c23.552 0 42.656 19.104 42.656 42.656s-19.104 42.656-42.656 42.656c-23.552 0-42.656-19.104-42.656-42.656v0c0-23.552 19.104-42.656 42.656-42.656v0zM810.656 832h-42.656v42.656c0 23.552-19.104 42.656-42.656 42.656s-42.656-19.104-42.656-42.656v0-42.656h-341.344v42.656c0 23.552-19.104 42.656-42.656 42.656s-42.656-19.104-42.656-42.656v0-42.656h-42.656c-70.688 0-128-57.312-128-128v0-597.344c0-70.688 57.312-128 128-128v0h597.344c70.688 0 128 57.312 128 128v0 597.344c0 70.688-57.312 128-128 128v0zM853.344 106.656c0-23.552-19.104-42.656-42.656-42.656v0h-597.344c-23.552 0-42.656 19.104-42.656 42.656v0 384h682.656zM853.344 576h-682.656v128c0 23.552 19.104 42.656 42.656 42.656v0h42.656v-42.656c0-23.552 19.104-42.656 42.656-42.656s42.656 19.104 42.656 42.656v0 42.656h341.344v-42.656c0-23.552 19.104-42.656 42.656-42.656s42.656 19.104 42.656 42.656v0 42.656h42.656c23.552 0 42.656-19.104 42.656-42.656v0zM298.656 320c23.552 0 42.656 19.104 42.656 42.656s-19.104 42.656-42.656 42.656c-23.552 0-42.656-19.104-42.656-42.656v0c0-23.552 19.104-42.656 42.656-42.656v0zM298.656 149.344c23.552 0 42.656 19.104 42.656 42.656s-19.104 42.656-42.656 42.656c-23.552 0-42.656-19.104-42.656-42.656v0c0-23.552 19.104-42.656 42.656-42.656v0z" />
<glyph unicode="&#xe907;" glyph-name="chart-down" d="M896 490.656c-23.552 0-42.656-19.104-42.656-42.656v0-110.496l-268.384 268.8c-7.744 7.808-18.464 12.608-30.304 12.608s-22.56-4.832-30.304-12.608v0l-140.384-140.8-225.696 226.144c-7.744 7.744-18.464 12.544-30.304 12.544-23.648 0-42.848-19.168-42.848-42.848 0-11.84 4.8-22.528 12.544-30.304l256-256c7.744-7.808 18.464-12.608 30.304-12.608s22.56 4.832 30.304 12.608v0l140.384 140.8 238.496-238.496h-110.496c-23.552 0-42.656-19.104-42.656-42.656s19.104-42.656 42.656-42.656v0h213.344c5.888 0.064 11.424 1.312 16.48 3.52l-0.288-0.096c10.464 4.416 18.624 12.576 22.944 22.752l0.096 0.288c2.080 4.768 3.328 10.336 3.424 16.192v213.376c0 23.552-19.104 42.656-42.656 42.656v0z" />
<glyph unicode="&#xe908;" glyph-name="chart-line" d="M298.656 277.344c35.36 0 64 28.64 64 64v0c0.096 0.96 0.16 2.080 0.16 3.2s-0.064 2.24-0.16 3.328v-0.128l119.040 119.040h19.616l68.704-68.704s0-2.144 0-3.424c0-35.36 28.64-64 64-64s64 28.64 64 64v0 3.424l155.296 156.576c35.36 0 64 28.64 64 64s-28.64 64-64 64c-35.36 0-64-28.64-64-64v0c-0.096-0.96-0.16-2.080-0.16-3.2s0.064-2.24 0.16-3.328v0.128l-154.016-154.016h-6.816l-73.824 75.104c0 35.36-28.64 64-64 64s-64-28.64-64-64v0l-128-128c-35.36 0-64-28.64-64-64s28.64-64 64-64v0zM874.656 106.656h-725.344v725.344c0 23.552-19.104 42.656-42.656 42.656s-42.656-19.104-42.656-42.656v0-768c0-23.552 19.104-42.656 42.656-42.656v0h768c23.552 0 42.656 19.104 42.656 42.656s-19.104 42.656-42.656 42.656v0z" />
<glyph unicode="&#xe909;" glyph-name="check" d="M798.304 652.384c-7.744 7.808-18.464 12.608-30.304 12.608s-22.56-4.832-30.304-12.608v0l-317.856-318.304-133.536 133.984c-7.84 7.584-18.528 12.256-30.304 12.256-24.096 0-43.616-19.52-43.616-43.616 0-12.32 5.088-23.424 13.28-31.36l163.84-163.84c7.744-7.808 18.464-12.608 30.304-12.608s22.56 4.832 30.304 12.608l348.16 348.16c8.448 7.808 13.728 18.976 13.728 31.36s-5.28 23.552-13.696 31.328l-0.032 0.032z" />
<glyph unicode="&#xe90a;" glyph-name="code" d="M414.304 691.616c-7.744 7.808-18.464 12.608-30.304 12.608s-22.56-4.832-30.304-12.608l-213.344-213.344c-7.808-7.744-12.608-18.464-12.608-30.304s4.832-22.56 12.608-30.304l213.344-213.344c7.744-7.808 18.464-12.608 30.304-12.608s22.56 4.832 30.304 12.608v0c7.808 7.744 12.608 18.464 12.608 30.304s-4.832 22.56-12.608 30.304v0l-183.456 183.040 183.456 183.040c7.808 7.744 12.608 18.464 12.608 30.304s-4.832 22.56-12.608 30.304v0zM883.616 478.304l-213.344 213.344c-7.744 7.744-18.464 12.544-30.304 12.544-23.648 0-42.848-19.168-42.848-42.848 0-11.84 4.8-22.528 12.544-30.304v0l183.456-183.040-183.456-183.040c-7.808-7.744-12.608-18.464-12.608-30.304s4.832-22.56 12.608-30.304v0c7.744-7.808 18.464-12.608 30.304-12.608s22.56 4.832 30.304 12.608l213.344 213.344c7.808 7.744 12.608 18.464 12.608 30.304s-4.832 22.56-12.608 30.304v0z" />
<glyph unicode="&#xe90b;" glyph-name="cog" d="M909.664 552.544l-80.64 26.88 37.984 75.936c2.688 5.44 4.256 11.84 4.256 18.592 0 11.712-4.736 22.336-12.384 30.048l-90.88 90.88c-7.712 7.744-18.4 12.512-30.176 12.512-6.88 0-13.376-1.632-19.136-4.512l0.256 0.096-75.936-37.984-26.88 80.64c-5.824 16.928-21.568 28.864-40.096 29.024h-128.032c-0.032 0-0.064 0-0.096 0-18.688 0-34.56-12-40.32-28.704l-26.976-80.928-75.936 37.984c-5.44 2.688-11.84 4.256-18.592 4.256-11.712 0-22.336-4.736-30.048-12.384l-90.88-90.88c-7.744-7.712-12.512-18.4-12.512-30.176 0-6.88 1.632-13.376 4.512-19.136l-0.096 0.256 37.984-75.936-80.64-26.88c-16.928-5.824-28.864-21.568-29.024-40.096v-128.032c0-0.032 0-0.064 0-0.096 0-18.688 12-34.56 28.704-40.32l80.928-26.976-37.984-75.936c-2.688-5.44-4.256-11.84-4.256-18.592 0-11.712 4.736-22.336 12.384-30.048l90.88-90.88c7.712-7.744 18.4-12.512 30.176-12.512 6.88 0 13.376 1.632 19.136 4.512l-0.256-0.096 75.936 37.984 26.88-80.64c5.856-17.024 21.76-29.024 40.416-29.024 0.032 0 0.064 0 0.128 0h128c0.032 0 0.064 0 0.096 0 18.688 0 34.56 12 40.32 28.704l26.976 80.928 75.936-37.984c5.344-2.592 11.648-4.128 18.304-4.128 11.648 0 22.208 4.672 29.92 12.256l90.88 90.88c7.744 7.712 12.512 18.4 12.512 30.176 0 6.88-1.632 13.376-4.512 19.136l0.096-0.256-37.984 75.936 80.64 26.88c16.928 5.824 28.864 21.568 29.024 40.096v128.032c0 0.032 0 0.064 0 0.096 0 18.688-12 34.56-28.704 40.32l-0.288 0.096zM853.344 414.72l-51.2-17.056c-34.528-11.456-59.008-43.456-59.008-81.184 0-14.304 3.52-27.776 9.728-39.616l-0.224 0.48 24.32-48.64-46.944-46.944-47.36 25.6c-11.104 5.632-24.192 8.96-38.048 8.96-37.504 0-69.376-24.192-80.8-57.856l-0.192-0.608-17.056-51.2h-67.84l-17.056 51.2c-11.456 34.528-43.456 59.008-81.184 59.008-14.304 0-27.776-3.52-39.616-9.728l0.48 0.224-48.64-24.32-46.944 46.944 25.6 47.36c5.984 11.36 9.504 24.864 9.504 39.136 0 37.728-24.48 69.728-58.4 80.992l-0.608 0.16-51.2 17.056v66.56l51.2 17.056c34.528 11.456 59.008 43.456 59.008 81.184 0 14.304-3.52 27.776-9.728 39.616l0.224-0.48-24.32 47.36 46.944 46.944 47.36-24.32c11.36-5.984 24.864-9.504 39.136-9.504 37.728 0 69.728 24.48 80.992 58.4l0.16 0.608 17.056 51.2h66.56l17.056-51.2c11.456-34.528 43.456-59.008 81.184-59.008 14.304 0 27.776 3.52 39.616 9.728l-0.48-0.224 48.64 24.32 46.944-46.944-25.6-47.36c-5.632-11.104-8.96-24.192-8.96-38.048 0-37.504 24.192-69.376 57.856-80.8l0.608-0.192 51.2-17.056zM512 618.656c-94.272 0-170.656-76.416-170.656-170.656s76.416-170.656 170.656-170.656c94.272 0 170.656 76.416 170.656 170.656v0c0 94.272-76.416 170.656-170.656 170.656v0zM512 362.656c-47.136 0-85.344 38.208-85.344 85.344s38.208 85.344 85.344 85.344c47.136 0 85.344-38.208 85.344-85.344v0c0-47.136-38.208-85.344-85.344-85.344v0z" />
<glyph unicode="&#xe90c;" glyph-name="comment-alt-chart-lines" d="M512 618.656c-23.552 0-42.656-19.104-42.656-42.656v0-170.656c0-23.552 19.104-42.656 42.656-42.656s42.656 19.104 42.656 42.656v0 170.656c0 23.552-19.104 42.656-42.656 42.656v0zM341.344 490.656c-23.552 0-42.656-19.104-42.656-42.656v0-42.656c0-23.552 19.104-42.656 42.656-42.656s42.656 19.104 42.656 42.656v0 42.656c0 23.552-19.104 42.656-42.656 42.656v0zM810.656 874.656h-597.344c-70.688 0-128-57.312-128-128v0-426.656c0-70.688 57.312-128 128-128v0h494.496l157.856-158.304c7.712-7.648 18.336-12.384 30.048-12.384 0.096 0 0.16 0 0.256 0v0c0.288 0 0.608 0 0.928 0 5.568 0 10.816 1.248 15.52 3.52l-0.224-0.096c15.584 6.528 26.368 21.632 26.464 39.232v682.688c0 70.688-57.312 128-128 128v0zM853.344 166.816l-97.696 98.144c-7.712 7.648-18.336 12.384-30.048 12.384-0.096 0-0.16 0-0.256 0h-512c-23.552 0-42.656 19.104-42.656 42.656v0 426.656c0 23.552 19.104 42.656 42.656 42.656v0h597.344c23.552 0 42.656-19.104 42.656-42.656v0zM682.656 704c-23.552 0-42.656-19.104-42.656-42.656v0-256c0-23.552 19.104-42.656 42.656-42.656s42.656 19.104 42.656 42.656v0 256c0 23.552-19.104 42.656-42.656 42.656v0z" />
<glyph unicode="&#xe90d;" glyph-name="comment-alt-image" d="M810.656 874.656h-597.344c-70.688 0-128-57.312-128-128v0-426.656c0-70.688 57.312-128 128-128v0h494.496l157.856-158.304c7.712-7.648 18.336-12.384 30.048-12.384 0.096 0 0.16 0 0.256 0v0c0.288 0 0.608 0 0.928 0 5.568 0 10.816 1.248 15.52 3.52l-0.224-0.096c15.584 6.528 26.368 21.632 26.464 39.232v682.688c0 70.688-57.312 128-128 128v0zM246.176 277.344h-32.864c-23.552 0-42.656 19.104-42.656 42.656v0 17.92l140.8 140.384c7.712 7.68 18.336 12.416 30.080 12.416s22.368-4.736 30.080-12.416l37.12-37.12zM853.344 166.816l-97.696 98.144c-7.712 7.648-18.336 12.384-30.048 12.384-0.096 0-0.16 0-0.256 0h-358.816l286.304 286.304c7.68 7.552 18.24 12.192 29.856 12.192s22.176-4.64 29.888-12.192v0l140.8-140.384zM853.344 543.584l-80.224 79.776c-23.168 23.136-55.136 37.44-90.464 37.44s-67.296-14.304-90.464-37.44v0l-122.88-122.464-37.536 37.12c-23.424 22.528-55.328 36.416-90.464 36.416s-67.040-13.888-90.496-36.448l0.032 0.032-80.224-79.776v288.416c0 23.552 19.104 42.656 42.656 42.656v0h597.344c23.552 0 42.656-19.104 42.656-42.656v0z" />
<glyph unicode="&#xe90e;" glyph-name="eye" d="M935.264 465.056c-86.176 200.096-248.32 324.256-423.264 324.256s-337.056-124.16-423.264-324.256c-2.24-5.024-3.552-10.88-3.552-17.056s1.312-12.032 3.68-17.344l-0.096 0.256c86.176-200.096 248.32-324.256 423.264-324.256s337.056 124.16 423.264 324.256c2.24 5.024 3.552 10.88 3.552 17.056s-1.312 12.032-3.68 17.344l0.096-0.256zM512 192c-135.264 0-263.264 97.696-337.056 256 73.824 158.304 201.824 256 337.056 256s263.264-97.696 337.056-256c-73.824-158.304-201.824-256-337.056-256zM512 618.656c-94.272 0-170.656-76.416-170.656-170.656s76.416-170.656 170.656-170.656c94.272 0 170.656 76.416 170.656 170.656v0c0 94.272-76.416 170.656-170.656 170.656v0zM512 362.656c-47.136 0-85.344 38.208-85.344 85.344s38.208 85.344 85.344 85.344c47.136 0 85.344-38.208 85.344-85.344v0c0-47.136-38.208-85.344-85.344-85.344v0z" />
<glyph unicode="&#xe90f;" glyph-name="grid" d="M896 874.656h-768c-23.552 0-42.656-19.104-42.656-42.656v0-768c0-23.552 19.104-42.656 42.656-42.656v0h768c23.552 0 42.656 19.104 42.656 42.656v0 768c0 23.552-19.104 42.656-42.656 42.656v0zM469.344 106.656h-298.656v170.656h298.656zM469.344 362.656h-298.656v170.656h298.656zM853.344 106.656h-298.656v170.656h298.656zM853.344 362.656h-298.656v170.656h298.656zM853.344 618.656h-682.656v170.656h682.656z" />
<glyph unicode="&#xe910;" glyph-name="layers" d="M106.656 509.44l384-221.856c6.112-3.584 13.472-5.728 21.344-5.728s15.2 2.112 21.536 5.824l-0.192-0.096 384 221.856c12.8 7.52 21.248 21.216 21.248 36.896s-8.448 29.376-21.056 36.8l-0.192 0.096-384 221.856c-6.112 3.584-13.472 5.728-21.344 5.728s-15.2-2.112-21.536-5.824l0.192 0.096-384-221.856c-12.8-7.52-21.248-21.216-21.248-36.896s8.448-29.376 21.056-36.8l0.192-0.096zM512 718.944l298.656-170.656-298.656-172.8-298.656 171.104zM874.656 386.56l-362.656-209.504-362.656 209.504c-6.176 3.68-13.632 5.856-21.568 5.856-15.648 0-29.344-8.448-36.768-21.024l-0.096-0.192c-3.616-6.144-5.76-13.504-5.76-21.376 0-15.776 8.576-29.568 21.344-36.96l0.192-0.096 384-221.856c6.112-3.584 13.472-5.728 21.344-5.728s15.2 2.112 21.536 5.824l-0.192-0.096 384 221.856c12.96 7.488 21.536 21.28 21.536 37.056 0 7.872-2.144 15.264-5.856 21.6l0.096-0.192c-7.52 12.768-21.216 21.216-36.896 21.216-7.936 0-15.392-2.176-21.76-5.952l0.192 0.096z" />
<glyph unicode="&#xe911;" glyph-name="left-indent" d="M128 661.344h768c23.552 0 42.656 19.104 42.656 42.656s-19.104 42.656-42.656 42.656v0h-768c-23.552 0-42.656-19.104-42.656-42.656s19.104-42.656 42.656-42.656v0zM128 490.656h426.656c23.552 0 42.656 19.104 42.656 42.656s-19.104 42.656-42.656 42.656v0h-426.656c-23.552 0-42.656-19.104-42.656-42.656s19.104-42.656 42.656-42.656v0zM928.864 546.56c-7.872 9.312-19.584 15.2-32.64 15.2-10.528 0-20.16-3.808-27.584-10.112l0.064 0.064-85.344-70.816c-9.472-7.872-15.456-19.68-15.456-32.864s5.984-24.96 15.36-32.8l0.064-0.064 85.344-70.816c7.296-6.272 16.832-10.144 27.296-10.24h0.032c0.032 0 0.032 0 0.064 0 13.152 0 24.896 5.952 32.736 15.296l0.064 0.064c6.144 7.328 9.888 16.896 9.888 27.328 0 13.184-5.984 24.96-15.36 32.8l-0.064 0.064-46.080 38.4 46.080 38.4c9.472 7.872 15.424 19.68 15.424 32.832 0 10.432-3.744 19.968-9.952 27.392l0.064-0.064zM896 234.656h-768c-23.552 0-42.656-19.104-42.656-42.656s19.104-42.656 42.656-42.656v0h768c23.552 0 42.656 19.104 42.656 42.656s-19.104 42.656-42.656 42.656v0zM128 320h426.656c23.552 0 42.656 19.104 42.656 42.656s-19.104 42.656-42.656 42.656v0h-426.656c-23.552 0-42.656-19.104-42.656-42.656s19.104-42.656 42.656-42.656v0z" />
<glyph unicode="&#xe912;" glyph-name="money-insert" d="M446.304 704l23.040 25.184v-153.184c0-23.552 19.104-42.656 42.656-42.656s42.656 19.104 42.656 42.656v0 153.184l23.040-23.456c7.84-8.832 19.264-14.368 31.936-14.368 11.872 0 22.624 4.864 30.336 12.672v0c7.808 7.744 12.608 18.464 12.608 30.304s-4.832 22.56-12.608 30.304l-97.696 97.696c-3.936 3.776-8.608 6.816-13.792 8.864l-0.288 0.096c-4.8 2.016-10.368 3.2-16.224 3.2s-11.424-1.184-16.48-3.296l0.288 0.096c-5.472-2.144-10.144-5.184-14.080-8.96v0l-97.696-96c-7.968-7.968-12.896-18.976-12.896-31.136 0-24.32 19.712-44.064 44.064-44.064 12.16 0 23.168 4.928 31.136 12.896v0zM512 448c-70.688 0-128-57.312-128-128s57.312-128 128-128c70.688 0 128 57.312 128 128v0c0 70.688-57.312 128-128 128v0zM512 277.344c-23.552 0-42.656 19.104-42.656 42.656s19.104 42.656 42.656 42.656c23.552 0 42.656-19.104 42.656-42.656v0c0-23.552-19.104-42.656-42.656-42.656v0zM213.344 320c0-23.552 19.104-42.656 42.656-42.656s42.656 19.104 42.656 42.656c0 23.552-19.104 42.656-42.656 42.656v0c-23.552 0-42.656-19.104-42.656-42.656v0zM810.656 320c0 23.552-19.104 42.656-42.656 42.656s-42.656-19.104-42.656-42.656c0-23.552 19.104-42.656 42.656-42.656v0c23.552 0 42.656 19.104 42.656 42.656v0zM853.344 618.656h-170.656c-23.552 0-42.656-19.104-42.656-42.656s19.104-42.656 42.656-42.656v0h170.656c23.552 0 42.656-19.104 42.656-42.656v0-341.344c0-23.552-19.104-42.656-42.656-42.656v0h-682.656c-23.552 0-42.656 19.104-42.656 42.656v0 341.344c0 23.552 19.104 42.656 42.656 42.656v0h170.656c23.552 0 42.656 19.104 42.656 42.656s-19.104 42.656-42.656 42.656v0h-170.656c-70.688 0-128-57.312-128-128v0-341.344c0-70.688 57.312-128 128-128v0h682.656c70.688 0 128 57.312 128 128v0 341.344c0 70.688-57.312 128-128 128v0z" />
<glyph unicode="&#xe913;" glyph-name="navigator" d="M860.576 566.176l-597.344 246.624c-14.464 6.144-31.296 9.728-48.96 9.728-70.688 0-128-57.312-128-128 0-14.144 2.304-27.776 6.528-40.512l-0.256 0.896 65.696-206.944-67.424-206.944c-4.16-12.064-6.56-25.952-6.56-40.416 0-37.12 15.808-70.528 41.024-93.92l0.096-0.064c22.368-20.768 52.288-33.664 85.248-34.144h0.096c17.696 0 34.56 3.616 49.92 10.144l-0.832-0.32 599.456 246.624c46.688 19.776 78.848 65.216 78.848 118.176s-32.16 98.4-78.016 117.856l-0.832 0.32zM228.704 162.144c-4.8-2.048-10.4-3.232-16.256-3.232-11.2 0-21.376 4.32-28.992 11.36l0.032-0.032c-8.128 7.776-13.184 18.72-13.184 30.848 0 4.224 0.608 8.288 1.76 12.128l-0.064-0.288 62.304 192.416h585.824zM234.24 490.656l-63.584 190.72c-1.056 3.552-1.664 7.616-1.664 11.808 0 12.128 5.056 23.072 13.184 30.816v0c7.776 8.16 18.752 13.216 30.88 13.216 0.096 0 0.192 0 0.288 0v0c6.016 0 11.744-1.28 16.928-3.52l-0.288 0.096 590.080-243.2z" />
<glyph unicode="&#xe914;" glyph-name="paint-tool" d="M768 917.344h-341.344c-70.688 0-128-57.312-128-128v0h-42.656c-70.688 0-128-57.312-128-128v0-128c0-70.688 57.312-128 128-128v0h256c23.552 0 42.656-19.104 42.656-42.656v0-42.656c-47.136 0-85.344-38.208-85.344-85.344v0-170.656c0-47.136 38.208-85.344 85.344-85.344v0h85.344c47.136 0 85.344 38.208 85.344 85.344v0 170.656c0 47.136-38.208 85.344-85.344 85.344v0 42.656c0 70.688-57.312 128-128 128v0h-256c-23.552 0-42.656 19.104-42.656 42.656v0 128c0 23.552 19.104 42.656 42.656 42.656v0h42.656c0-70.688 57.312-128 128-128v0h341.344c70.688 0 128 57.312 128 128v0 85.344c0 70.688-57.312 128-128 128v0zM640 234.656v-170.656h-85.344v170.656zM810.656 704c0-23.552-19.104-42.656-42.656-42.656v0h-341.344c-23.552 0-42.656 19.104-42.656 42.656v0 85.344c0 23.552 19.104 42.656 42.656 42.656v0h341.344c23.552 0 42.656-19.104 42.656-42.656v0z" />
<glyph unicode="&#xe915;" glyph-name="plus" d="M810.656 490.656h-256v256c0 23.552-19.104 42.656-42.656 42.656s-42.656-19.104-42.656-42.656v0-256h-256c-23.552 0-42.656-19.104-42.656-42.656s19.104-42.656 42.656-42.656v0h256v-256c0-23.552 19.104-42.656 42.656-42.656s42.656 19.104 42.656 42.656v0 256h256c23.552 0 42.656 19.104 42.656 42.656s-19.104 42.656-42.656 42.656v0z" />
<glyph unicode="&#xe916;" glyph-name="question-circle" d="M481.696 307.616c-1.76-1.92-3.424-4-4.992-6.208l-0.128-0.192c-1.536-2.208-2.816-4.736-3.776-7.456l-0.064-0.224c-1.152-2.208-2.048-4.8-2.528-7.52l-0.032-0.16c-0.096-1.28-0.16-2.752-0.16-4.256s0.064-2.976 0.16-4.448v0.192c0-0.288 0-0.608 0-0.928 0-5.568 1.248-10.816 3.52-15.52l-0.096 0.224c3.968-10.752 12.288-19.072 22.784-22.944l0.256-0.096c4.768-2.176 10.336-3.424 16.224-3.424s11.456 1.248 16.48 3.52l-0.256-0.096c10.752 3.968 19.072 12.288 22.944 22.784l0.096 0.256c1.632 4.352 2.592 9.376 2.592 14.624 0 0.544 0 1.12-0.032 1.664v-0.064c0 0.064 0 0.16 0 0.256 0 11.712-4.736 22.336-12.384 30.048v0c-7.744 7.808-18.464 12.608-30.304 12.608s-22.56-4.832-30.304-12.608v0zM512 874.656c-235.648 0-426.656-191.040-426.656-426.656s191.040-426.656 426.656-426.656c235.648 0 426.656 191.040 426.656 426.656v0c0 235.648-191.040 426.656-426.656 426.656v0zM512 106.656c-188.512 0-341.344 152.832-341.344 341.344s152.832 341.344 341.344 341.344c188.512 0 341.344-152.832 341.344-341.344v0c0-188.512-152.832-341.344-341.344-341.344v0zM512 661.344c-0.032 0-0.064 0-0.096 0-47.136 0-88.32-25.472-110.528-63.392l-0.32-0.608c-4.192-6.496-6.656-14.4-6.656-22.88 0-23.552 19.104-42.656 42.656-42.656 16.32 0 30.528 9.184 37.696 22.656l0.128 0.224c7.52 12.832 21.248 21.344 36.96 21.344 0.064 0 0.128 0 0.192 0v0c23.552 0 42.656-19.104 42.656-42.656s-19.104-42.656-42.656-42.656v0c-23.552 0-42.656-19.104-42.656-42.656v0-42.656c0-23.552 19.104-42.656 42.656-42.656s42.656 19.104 42.656 42.656v0 7.68c49.632 18.368 84.352 65.28 84.352 120.32 0 70.336-56.736 127.424-126.944 128h-0.064z" />
<glyph unicode="&#xe917;" glyph-name="search" d="M926.304 94.304l-158.304 157.024c52.608 65.152 84.448 148.992 84.448 240.256 0 212.064-171.936 384-384 384s-384-171.936-384-384c0-212.064 171.936-384 384-384 91.264 0 175.104 31.84 240.992 85.024l-0.736-0.576 157.024-157.024c7.744-7.808 18.464-12.608 30.304-12.608s22.56 4.832 30.304 12.608v0c7.424 7.68 12 18.112 12 29.664s-4.576 21.984-12 29.664v0zM469.344 192c-164.96 0-298.656 133.728-298.656 298.656s133.728 298.656 298.656 298.656c164.96 0 298.656-133.728 298.656-298.656v0c0-164.96-133.728-298.656-298.656-298.656v0z" />
<glyph unicode="&#xe918;" glyph-name="sign-out-alt" d="M537.184 405.344l-98.144-97.696c-7.808-7.744-12.608-18.464-12.608-30.304s4.832-22.56 12.608-30.304v0c7.744-7.808 18.464-12.608 30.304-12.608s22.56 4.832 30.304 12.608l170.656 170.656c3.776 3.936 6.816 8.608 8.864 13.792l0.096 0.288c2.016 4.8 3.2 10.368 3.2 16.224s-1.184 11.424-3.296 16.48l0.096-0.288c-2.144 5.472-5.184 10.144-8.96 14.080v0l-170.656 170.656c-7.744 7.744-18.464 12.544-30.304 12.544-23.648 0-42.848-19.168-42.848-42.848 0-11.84 4.8-22.528 12.544-30.304v0l98.144-97.696h-409.184c-23.552 0-42.656-19.104-42.656-42.656s19.104-42.656 42.656-42.656v0zM512 874.656c-0.576 0-1.248 0-1.92 0-166.464 0-310.656-95.328-380.992-234.368l-1.12-2.432c-2.848-5.6-4.544-12.192-4.544-19.2 0-23.712 19.232-42.944 42.944-42.944 16.704 0 31.2 9.536 38.272 23.488l0.128 0.256c57.088 113.408 172.544 189.856 305.888 189.856 188.512 0 341.344-152.832 341.344-341.344 0-188.064-152.064-340.576-339.936-341.344h-0.064c-0.448 0-0.96 0-1.472 0-132.832 0-247.776 76.544-303.136 187.904l-0.896 1.952c-7.2 14.176-21.696 23.744-38.4 23.744-23.712 0-42.944-19.232-42.944-42.944 0-7.008 1.664-13.6 4.64-19.456l-0.128 0.256c71.424-141.472 215.648-236.8 382.080-236.8 235.648 0 426.656 191.040 426.656 426.656 0 235.584-190.912 426.56-426.464 426.656v0z" />
<glyph unicode="&#xe919;" glyph-name="star" d="M938.656 547.424c-5.536 15.744-19.616 27.072-36.544 28.576h-0.16l-242.784 35.424-108.8 220.576c-7.072 14.368-21.6 24.064-38.4 24.064s-31.328-9.696-38.304-23.808l-0.096-0.256-108.8-220.16-242.784-35.84c-16.288-2.368-29.44-13.696-34.464-28.704l-0.096-0.288c-1.184-3.744-1.856-8.032-1.856-12.48 0-11.808 4.8-22.464 12.512-30.208v0l176.224-170.656-42.656-242.336c-0.48-2.4-0.768-5.152-0.768-7.968 0-14.24 6.976-26.848 17.696-34.592l0.128-0.096c6.88-4.96 15.488-7.968 24.8-7.968 7.328 0 14.208 1.856 20.224 5.088l-0.224-0.096 218.464 113.92 217.6-114.336c5.6-3.232 12.32-5.12 19.488-5.12 0.032 0 0.096 0 0.128 0v0c0.032 0 0.096 0 0.16 0 9.408 0 18.080 3.040 25.152 8.192l-0.128-0.096c10.848 7.84 17.824 20.448 17.824 34.688 0 2.816-0.288 5.568-0.8 8.256l0.032-0.256-42.656 242.336 176.224 170.656c9.248 7.872 15.072 19.52 15.072 32.544 0 3.904-0.512 7.68-1.504 11.264l0.064-0.288zM676.256 376.736c-8.032-7.776-12.992-18.624-12.992-30.656 0-2.592 0.224-5.12 0.672-7.552l-0.032 0.256 30.72-178.784-160.416 85.344c-5.792 3.168-12.704 4.992-20.064 4.992s-14.24-1.856-20.288-5.12l0.224 0.096-160.416-85.344 30.72 178.784c0.416 2.208 0.64 4.736 0.64 7.296 0 12.032-4.992 22.912-12.992 30.656l-128 128 179.616 26.016c14.304 2.048 26.176 10.944 32.32 23.232l0.128 0.256 75.936 162.56 80.224-162.976c6.24-12.512 18.112-21.408 32.192-23.424l0.224-0.032 179.616-26.016z" />
<glyph unicode="&#xe91a;" glyph-name="tachometer-fast" d="M652.384 520.96l-118.624-118.624c-6.496 1.792-13.984 2.88-21.696 2.976h-0.064c-47.136 0-85.344-38.208-85.344-85.344v0c0.096-7.776 1.184-15.264 3.136-22.4l-0.16 0.64-33.28-33.28c-7.808-7.744-12.608-18.464-12.608-30.304s4.832-22.56 12.608-30.304v0c7.744-7.808 18.464-12.608 30.304-12.608s22.56 4.832 30.304 12.608l33.28 33.28c6.496-1.792 13.984-2.88 21.696-2.976h0.064c47.136 0 85.344 38.208 85.344 85.344v0c-0.096 7.776-1.184 15.264-3.136 22.4l0.16-0.64 118.624 118.624c7.744 7.744 12.544 18.464 12.544 30.304 0 23.648-19.168 42.848-42.848 42.848-11.84 0-22.528-4.8-30.304-12.544v0zM512 789.344c-235.648 0-426.656-191.040-426.656-426.656v0c0-0.32 0-0.672 0-1.056 0-88.096 26.944-169.92 73.056-237.632l-0.928 1.472c7.776-11.424 20.736-18.816 35.424-18.816 23.584 0 42.72 19.136 42.72 42.72 0 8.928-2.72 17.184-7.392 24.032l0.096-0.16c-36.096 53.28-57.6 119.008-57.6 189.76 0 188.512 152.832 341.344 341.344 341.344s341.344-152.832 341.344-341.344c0-70.752-21.504-136.448-58.368-190.944l0.768 1.216c-4.576-6.688-7.328-14.976-7.328-23.904 0-14.688 7.424-27.616 18.688-35.296l0.16-0.096c6.688-4.544 14.912-7.264 23.808-7.264 0.032 0 0.064 0 0.096 0v0c0.032 0 0.032 0 0.064 0 14.656 0 27.584 7.392 35.264 18.624l0.096 0.16c45.152 66.272 72.096 148.064 72.096 236.16 0 0.384 0 0.736 0 1.12v-0.064c0 235.648-191.040 426.656-426.656 426.656v0z" />
<glyph unicode="&#xe91b;" glyph-name="times" d="M572.16 448l183.456 183.040c7.744 7.744 12.544 18.464 12.544 30.304 0 23.648-19.168 42.848-42.848 42.848-11.84 0-22.528-4.8-30.304-12.544v0l-183.040-183.456-183.040 183.456c-7.744 7.744-18.464 12.544-30.304 12.544-23.648 0-42.848-19.168-42.848-42.848 0-11.84 4.8-22.528 12.544-30.304v0l183.456-183.040-183.456-183.040c-7.808-7.744-12.608-18.464-12.608-30.304s4.832-22.56 12.608-30.304v0c7.744-7.808 18.464-12.608 30.304-12.608s22.56 4.832 30.304 12.608v0l183.040 183.456 183.040-183.456c7.744-7.808 18.464-12.608 30.304-12.608s22.56 4.832 30.304 12.608v0c7.808 7.744 12.608 18.464 12.608 30.304s-4.832 22.56-12.608 30.304v0z" />
<glyph unicode="&#xe91c;" glyph-name="trophy" d="M896 789.344h-128v42.656c0 23.552-19.104 42.656-42.656 42.656v0h-426.656c-23.552 0-42.656-19.104-42.656-42.656v0-42.656h-128c-23.552 0-42.656-19.104-42.656-42.656v0-128c0-94.272 76.416-170.656 170.656-170.656v0h65.696c37.664-41.888 88.576-71.168 146.080-81.28l1.536-0.224v-89.184h-42.656c-70.688 0-128-57.312-128-128v0-85.344c0-23.552 19.104-42.656 42.656-42.656v0h341.344c23.552 0 42.656 19.104 42.656 42.656v0 85.344c0 70.688-57.312 128-128 128v0h-42.656v89.184c59.072 10.304 109.984 39.616 147.424 81.248l0.192 0.224h65.696c94.272 0 170.656 76.416 170.656 170.656v0 128c0 23.552-19.104 42.656-42.656 42.656v0zM256 533.344c-47.136 0-85.344 38.208-85.344 85.344v0 85.344h85.344v-85.344c0.096-30.624 5.568-59.936 15.488-87.104l-0.576 1.792zM597.344 192c23.552 0 42.656-19.104 42.656-42.656v0-42.656h-256v42.656c0 23.552 19.104 42.656 42.656 42.656v0zM682.656 618.656c0-94.272-76.416-170.656-170.656-170.656s-170.656 76.416-170.656 170.656v0 170.656h341.344zM853.344 618.656c0-47.136-38.208-85.344-85.344-85.344v0h-14.944c9.376 25.376 14.816 54.72 14.944 85.28v85.376h85.344z" />
</font>
</defs>
</svg>
